<svg xmlns="http://www.w3.org/2000/svg" viewBox="0 0 17.14 16.38">
  <path fill="#222222" d="M15.56,13.79A1.76,1.76,0,0,1,15,15.15a2.1,2.1,0,0,1-1.51.55h0A2,2,0,0,1,12,15.15a1.83,1.83,0,0,1-.56-1.36A1.8,1.8,0,0,1,12,12.42a2.1,2.1,0,0,1,1.5-.54,2,2,0,0,1,1.48.54A1.86,1.86,0,0,1,15.56,13.79Zm-.23,3.42V28.26H11.64V17.2Zm13.25,4.72v6.34H24.9V22.35a3.23,3.23,0,0,0-.45-1.84A1.59,1.59,0,0,0,23,19.85a1.81,1.81,0,0,0-1.18.39,2.37,2.37,0,0,0-.71,1,2.69,2.69,0,0,0-.12.9v6.17H17.36q0-4.45,0-7.22t0-3.3V17.2H21v1.61h0a4.19,4.19,0,0,1,1.09-1.21,2.9,2.9,0,0,1,1-.49,4.43,4.43,0,0,1,1.28-.17,4,4,0,0,1,3.07,1.27A5.32,5.32,0,0,1,28.57,21.92Z" transform="translate(-11.43 -11.88)"/>
</svg>
