<svg xmlns="http://www.w3.org/2000/svg" width="44.6" height="44.6" viewBox="0 0 44.6 44.6">
  <path fill="none" stroke="#FDBF57" stroke-width="2" stroke-miterlimit="10" d="M22.3,1c11.8,0,21.3,9.6,21.3,21.3c0,11.8-9.6,21.3-21.3,21.3C10.6,43.6,1,34.1,1,22.3C1,10.6,10.6,1,22.3,1"/>
  <polygon fill="none" stroke="#222222" stroke-width="1.5" stroke-linecap="round" stroke-miterlimit="10" points="35.4,18.7 19.5,14.1 18.1,28.1"/>
  <circle fill="#DBDBDD" stroke="#222222" stroke-width="1.5" stroke-linecap="round" stroke-miterlimit="10" cx="20.6" cy="13.5" r="3.6"/>
  <path fill="#DBDBDD" stroke="#222222" stroke-width="1.5" stroke-linecap="round" stroke-miterlimit="10" d="M36.8,19.7c-0.2,1.5-1.6,2.6-3.1,2.4s-2.6-1.6-2.4-3.1c0.2-1.5,1.6-2.6,3.1-2.4C35.9,16.8,37,18.2,36.8,19.7"/>
  <circle fill="#DBDBDD" stroke="#222222" stroke-width="1.5" stroke-linecap="round" stroke-miterlimit="10" cx="18" cy="28.5" r="6.2"/>
</svg>
